<mxfile host="app.diagrams.net" modified="2023-02-21T15:35:49.208Z" agent="5.0 (Windows)" etag="UP86u7u-Ed3VPl8KmNWF" version="20.8.21" type="github">
  <diagram name="PÃ¡gina-1" id="mOtGsWeZV9VXRKh0hD0D">
    <mxGraphModel dx="1050" dy="566" grid="1" gridSize="10" guides="1" tooltips="1" connect="1" arrows="1" fold="1" page="1" pageScale="1" pageWidth="827" pageHeight="1169" math="0" shadow="0">
      <root>
        <mxCell id="0" />
        <mxCell id="1" parent="0" />
        <mxCell id="L3iJL3pYwPe-wqYzRro6-1" value="" style="rounded=1;whiteSpace=wrap;html=1;" vertex="1" parent="1">
          <mxGeometry x="200" y="80" width="480" height="330" as="geometry" />
        </mxCell>
        <mxCell id="L3iJL3pYwPe-wqYzRro6-4" value="&lt;h1&gt;Txipiron Client&lt;br&gt;&lt;/h1&gt;" style="text;html=1;strokeColor=none;fillColor=none;spacing=5;spacingTop=-20;whiteSpace=wrap;overflow=hidden;rounded=0;align=center;" vertex="1" parent="1">
          <mxGeometry x="230" y="100" width="420" height="70" as="geometry" />
        </mxCell>
        <mxCell id="L3iJL3pYwPe-wqYzRro6-5" value="" style="rounded=0;whiteSpace=wrap;html=1;fontSize=24;" vertex="1" parent="1">
          <mxGeometry x="270" y="310" width="340" height="30" as="geometry" />
        </mxCell>
        <mxCell id="L3iJL3pYwPe-wqYzRro6-7" value="&lt;font style=&quot;font-size: 23px;&quot;&gt;&lt;font style=&quot;font-size: 22px;&quot;&gt;&lt;font style=&quot;font-size: 21px;&quot;&gt;&lt;font style=&quot;font-size: 20px;&quot;&gt;&lt;font style=&quot;font-size: 19px;&quot;&gt;&lt;font style=&quot;font-size: 18px;&quot;&gt;&lt;font style=&quot;font-size: 17px;&quot;&gt;&lt;font style=&quot;font-size: 16px;&quot;&gt;To link an account, you will need an API token.&lt;/font&gt;&lt;/font&gt;&lt;/font&gt;&lt;/font&gt;&lt;/font&gt;&lt;/font&gt;&lt;/font&gt;&lt;/font&gt;" style="text;html=1;strokeColor=none;fillColor=none;align=center;verticalAlign=middle;whiteSpace=wrap;rounded=0;fontSize=24;" vertex="1" parent="1">
          <mxGeometry x="245" y="270" width="390" height="30" as="geometry" />
        </mxCell>
        <mxCell id="L3iJL3pYwPe-wqYzRro6-8" value="" style="shape=image;html=1;verticalAlign=top;verticalLabelPosition=bottom;labelBackgroundColor=#ffffff;imageAspect=0;aspect=fixed;image=https://cdn1.iconfinder.com/data/icons/sea-24/32/Artboard_10sea-128.png;fontSize=16;" vertex="1" parent="1">
          <mxGeometry x="376" y="142" width="128" height="128" as="geometry" />
        </mxCell>
        <mxCell id="L3iJL3pYwPe-wqYzRro6-9" value="Add Account" style="rounded=1;whiteSpace=wrap;html=1;fontSize=16;" vertex="1" parent="1">
          <mxGeometry x="375" y="360" width="130" height="30" as="geometry" />
        </mxCell>
      </root>
    </mxGraphModel>
  </diagram>
</mxfile>
